<svg viewBox="0 0 227.65 55.08" xmlns="http://www.w3.org/2000/svg"><text fill="#323232" font-family="MountainsofChristmas-Bold, Mountains of Christmas" font-size="36" font-weight="700" transform="translate(0 42.63)">he<tspan letter-spacing="-.02em" x="29.53" y="0">r</tspan><tspan x="43.56" y="0">e</tspan><tspan fill="#674bb5" x="55.93" y="0">be</tspan><tspan x="85.54" y="0">s</tspan><tspan letter-spacing="-.04em" x="98.16" y="0">t</tspan><tspan letter-spacing="-.01em" x="109.86" y="0">o</tspan><tspan letter-spacing="-.01em" x="124.59" y="0">r</tspan><tspan x="139.18" y="0">ies</tspan></text><g fill="#4d4d4d"><path d="m218.31 7.88c0-.07-.1-.18-.16-.11l.1.24z"/><path d="m217.61 7.81a.63.63 0 0 0 .19.55c-.05-.25 0-.19-.06-.48.06-.07.17 0 .21.07 0-.07.13 0 .08-.18s-.31 0-.34.18c-.05-.03-.06-.1-.08-.14z"/><path d="m210.92 12.19h.08a.07.07 0 0 0 -.08 0z"/><path d="m207 15.18s0-.06 0-.07 0 .06 0 .07z"/><path d="m206.15 15.52s0-.03 0 0z"/><path d="m210.92 12.19h-.15c.04.09.09.02.15 0z"/><path d="m217 8.93a.15.15 0 0 0 0-.09v.06z"/><path d="m212.54 10.7v-.1z"/><path d="m213.87 9.68s.08.19.12.27c0-.08 0-.13 0-.16z"/><path d="m211.55 11.39a.13.13 0 0 0 -.06-.05z"/><path d="m181.38 46.68s-.01.01 0 0z"/><path d="m179.47 47.76v-.03l-.1-.06z"/><path d="m204.8 16.33s.01-.03 0 0z"/><path d="m194.66 26.35c.25 0 0 .36.32.32-.08-.04-.09-.38-.32-.32z"/><path d="m217 8.93a.1.1 0 0 1 -.05 0 .07.07 0 0 0 .05 0z"/><path d="m202.21 18.81h.09s-.04.01-.09 0z"/><path d="m204.39 17.25h-.07a.1.1 0 0 0 .07 0z"/><path d="m201.4 20s-.07 0-.09.05.03-.05.09-.05z"/><path d="m200.36 20.95.05.01.02-.04z"/><path d="m183.65 43a.45.45 0 0 1 -.19 0c.14 0 .07.22.19 0z"/><path d="m217 8.83a.12.12 0 0 1 0 .1.21.21 0 0 0 0-.1z"/><path d="m202.49 21.21-.19.13a.72.72 0 0 0 .19-.13z"/><path d="m189.68 34.78v.06a.06.06 0 0 0 0-.06z"/><path d="m201.84 21.83a.33.33 0 0 0 -.19 0 .14.14 0 0 0 0 .06z"/><path d="m183.05 44.47c.12-.18-.17-.24-.28-.36.08-.26.24 0 .41 0 0-.18-.12-.42-.05-.51s.07 0 .11.06c-.09-.26.27-.43.15-.74h.07a1.15 1.15 0 0 1 -.33-.19c.05-.08 0-.24.12-.17 0 0 0 .09.05.14v-.12c.27.07 0 .16.16.27 0-.21 0-.53.14-.61.22.12-.13.34.17.3l-.21.14c.43.08-.1.1.34.21.24-.21.08-.36.32-.57-.08-.14-.18-.1-.26-.24 0-.5.72.09.63-.37-.09-.16-.34-.37-.07-.46l.2.23c.19-.23-.25-.38.09-.53.06.12-.05.25 0 .23.3 0-.05-.21 0-.33l.23.12c.15-.29.2-.68.36-1 0 .06.08.15.19.13a2.16 2.16 0 0 1 1-1l-.08-.26s.12 0 .13.06c.16-.09-.11-.09-.13-.21s.18 0 .19.07c0-.35.18-.92.56-1v.09c.22-.14-.2-.49.1-.55v.06c.39-.36.57-1 1.09-1.06-.21-.25.43-.32.1-.62.36-.1.37 0 .75-.22.08-.08-.12-.3-.07-.44l.19.14-.08-.3.28.1v-.14a.19.19 0 0 1 -.2 0c0-.23.43-.29.53-.22l.15-.5c.06.07 0 .15 0 .24 0-.35.22.12.2-.21-.06 0-.1-.1-.13-.13.18 0 .35-.21.44-.39l.09.13c.26-.25.43-.63.69-.94-.15.07-.34-.14-.29-.24l.22.12c-.07-.16-.15 0-.19-.21.12-.09.28.11.28.22l.05-.19c.07 0 .07.09.13.16-.07-.15.39-.08.26-.33h.06c.26-.31.31-.5.51-.76-.16-.14 0-.21-.11-.4a2.16 2.16 0 0 0 .69-.45c.06-.22-.09-.16-.13-.32.16.12.34-.11.34.09a2.61 2.61 0 0 0 .44-.79c-.09 0-.15 0-.19-.06s.19-.08.25 0c.11-.56 1.16-.48 1.13-1l.12-.44c.15-.12 0 .18.21.16.07-.54.51-.48.6-.89.6.18.65-.75 1.17-.78l-.12-.08c0-.16.14 0 .21-.06-.08-.07-.16 0-.17-.1a7.53 7.53 0 0 1 2-1.61c.25-.19-.36-.61.14-.66l.09.25c.23-.66.91-.9 1.18-1.5 0 .06.06.12 0 .16.22 0 .35-.33.25-.43.08-.06.1.08.2.09s.07-.39.25-.31v.09s.3-.26.1-.35c.23-.09.25-.37.47-.41-.07-.25.36-.19.16-.46.22.26.48-.08.48-.29 0 .11.16 0 .22.13.12-.11.19-.26.05-.37.5.09.23-.65.71-.39a8.79 8.79 0 0 1 .76-1.22c.22.26-.34.36-.08.61.21-.39.2-.77.56-1 .11 0 .05.15.06.22.22-.39.64-.51.79-.9a.13.13 0 0 1 0 .12c0-.06.17-.07.06-.18v.07c-.23-.09-.08-.54-.15-.64.19.42.35-.16.57.4a.24.24 0 0 0 -.06-.22c.07 0 .13 0 .15.14.14-.24 0-.3.15-.45 0 .05 0 .11.07.19 0-.19 0-.38.19-.47 0 .05.07.08 0 .11.24-.24.19-.68.57-.82.13.32.17 0 .36.2l.11-.2h-.15c.14-.11.13-.37.31-.4v.18l.22-.26h-.21c0-.22-.24-.26 0-.35 0 0 .14-.11.32 0 0-.13 0-.26.17-.29s.18.26.23.29c-.08-.24.29-.32.21-.58a.44.44 0 0 0 .13.2l-.06-.2c.1 0 .13 0 .19.11.22-.13-.28-.22 0-.29v.09c.28-.13.37-.46.64-.56.24.17-.14.21.08.33.27-.29.43-.78.77-1h-.07c-.21-.35.34 0 .38-.29 0 0 .09.21.07.17.25-.11.36-.4.6-.75v.11c.18 0 .36-.2.52-.27 0-.11.06-.16-.08-.24.76.15.59-.86 1.25-.73 0 0 0 .14 0 .12l.26-.31c-.13-.12-.1-.05-.25-.11a.32.32 0 0 1 .1-.3c-.07.2.17.22.28.26s0-.1-.09-.14c.35.13-.18-.3.17-.3v.08c.06-.1.06-.25.17-.29.16.13 0 .14.06.27.12-.1 0-.49.26-.41 0 .08-.1.14-.12.23.26.09.24 0 .36 0l.28-.07h-.09c-.15-.54.26-.32.28-.75 0 .41.07.18.19.37.09 0 .22 0 .23.08 0-.22.25 0 .24-.33.05 0 .11-.07.19.09.1-.14-.1-.08-.14-.16 0-.36.66-.09.75-.58.18-.29.08-.53.25-.79.15 0 .09.26.09.26a.34.34 0 0 0 .35-.24c0 .07.07.1.15.14s-.08-.26.11-.26a1 1 0 0 1 .06.31c.08-.14.12-.33.2-.47.1.08 0 .21 0 .31.1-.14.28-.34.21-.53h-.12s.12.12.1.18-.2.06-.25 0l.06-.1c-.33-.29-.3.3-.49.39l-.11-.3v.33c-.09 0-.21-.16-.15-.26-.22 0-.05.17-.25.1 0 0 0 0 0-.05l-.07.16c0-.07-.14-.17 0-.18-.32 0-.22.43-.44.3-.24.29.1.2 0 .58l-.47-.36.1.21a.1.1 0 0 1 -.15 0c0 .21.08.07.1.24-.27-.07-.35.37-.6.09.05.18.22 0 .14.22-.28-.28-.15.19-.38.14-.08-.19.11-.2-.13-.25.12.34-.31.13-.38.27.16.22-.18.27-.31.48 0-.08-.45.14-.68.19.13.25-.09.34-.18.48a.33.33 0 0 1 -.09-.31l-.12.09a.26.26 0 0 1 0 .24l-.09-.19c-.16.13-.19.44-.48.49.1.16.49.3.34.57-.07-.08-.18-.21-.15-.29s0 .12-.08.12v-.21c-.14 0 0 .15 0 .2-.09-.12-.12 0-.18-.14s.1 0 .09-.08a.41.41 0 0 1 -.36 0c.06.06.12.16.07.22s-.16-.1-.3-.09c0 .12-.15.11 0 .29 0 0-.12 0-.17-.07 0 .14-.38.32-.14.44-.14.39-.65.34-.87.63v-.06c-.11.2-.33.32-.35.54 0 0-.2 0-.23-.1-.09.14-.05.21-.31.26.05-.2-.11-.06.07-.18-.2.08-.31 0-.35.32-.06-.2-.27-.09-.31 0h.2a.84.84 0 0 1 -.24.19l-.12-.23c-.51 0-.26.88-.82.69 0 .2.25 0 .3.17-.17.1-.55 0-.6 0-.29.07 0 .44-.23.54.08 0 .26.21.16.41s-.43-.14-.38-.27a.05.05 0 0 1 .09 0c0-.07.06-.15-.06-.18v.09c-.13 0-.33.17-.38 0-.06.16 0 .16.16.12-.27.06-.3.24-.55.35.06 0 .16.06.13.09-.36.16 0 .23-.19.43-.19 0-.17-.28-.29 0-.17 0-.17-.16-.17-.25-.07.28-.41.2-.53.26v-.13a.42.42 0 0 1 -.12.16l.17.08c-.08 0-.12.07-.17 0 0 .14.24.19.23.4-.13 0-.16.27-.34.11.28-.13-.18-.15 0-.35a.2.2 0 0 1 -.14.11 0 0 0 0 1 0-.06c-.36 0 .08.29-.15.48-.06-.13-.22-.15-.24-.09s.19.13.17.28c-.21 0-.1.19-.19.25h.12c.06.12 0 .17-.1.29-.07-.07.05-.13 0-.13 0 .27-.41 0-.46.29-.14 0-.18-.18-.28-.17-.06.28-.31 0-.4.3.18.09.16 0 .15.29l.21-.36v.36c.09-.08.11-.25.19-.28 0 .19 0 .15.13.22-.31-.09-.14.34-.4.33l-.29-.33c-.35.05-.23.51-.58.68h.14c.08.16-.15.17-.19.31-.1-.12-.19-.11-.29-.14.08.08-.21.18 0 .42h-.26c-.27.14 0 .54-.21.7-.05-.18-.21-.17-.15-.38-.07.06-.16.1-.09.18-.1 0-.06.32-.22.28 0 .07.11.2 0 .26a.11.11 0 0 1 -.05-.05c.05.05-.05.19.13.24-.53-.13-.58.6-1 .49a3.26 3.26 0 0 1 -.39.54s0-.06 0-.07c-.28.09.18.42-.14.52-.28-.07 0-.21-.11-.21-.37-.32-.21.3-.56.24v-.05c-.23 0-.14.39-.35.54a.11.11 0 0 0 0 0 1.36 1.36 0 0 1 -.24.81c-.09-.19 0-.15-.17-.26 0 .1.25.2.13.39-.12 0-.3 0-.46-.1l.14-.16c-.26-.11-.18.2-.29.24l-.07-.09c-.2.25 0 .46-.24.69h.09c.08.34-.23 0-.2.28l-.25-.16a3.49 3.49 0 0 1 -.21.69 1.79 1.79 0 0 1 .05-.7c-.09.08-.28.31-.22.45 0-.05 0-.15.07-.15a.65.65 0 0 1 -.16.66c-.38-.43-.54.34-1 .17-.14.45-.64.55-1 .94.45.18-.09.12.27.41-.06.1-.09.13-.12.12l-.44.07c-.15 0 0-.15-.08-.22-.2.17-.22-.05-.42 0 .14.09.11.22 0 .29h.29c-.06.43-.49 0-.56.39v-.18c-.06.19-.46.5-.3.88-.06 0-.18-.06-.15-.15-.34.3-.36 1-.75 1.1l-.06-.1c0 .09.06.25-.09.25s-.06-.1-.09-.07 0 .29-.12.33v-.16c-.4.23-.21.7-.38 1-.25-.22-.56 0-.71.06-.35.36-.33.83-.53 1.26-.46 0-.73.65-1.18.88.09 0 .19.17.16.25s0 .38-.24.17c-.28-.13-.36.09-.47.22l.29.27c-.73 0-.57 1.06-1.13.94 0 .14-.08.25-.06.39l-.17-.13a2.15 2.15 0 0 0 -.54.63l-.07-.15c-.14.15.32.58.21.74l-.29-.15c-.22.29-.66.43-.65.89 0 0-.1-.1-.08-.15-.11.13-.57.41-.19.62-.23-.17-.25.29-.26.52l-.15-.15c.11.29.17.34.09.57-.06 0-.17-.06-.08-.09-.2.09.07.24-.15.35l-.06-.15c-.13.15-.06.18 0 .35s-.25.26-.42.17c.07.09.14.26 0 .32a.16.16 0 0 1 -.09-.12c-.3.17-.08.53-.37.59-.06 0-.09 0-.12 0 .15-.21.27-.37.28-.34-.16-.12-.31 0-.43-.26 0 .22.12.63-.07.74h-.07c-.05 0-.05.07-.05.12a.3.3 0 0 0 -.14.1c-.15-.07-.21.14-.27.22.17.12.07.2.28.2 0 0 0 0 0-.09s0 0 0 0l.14-.21c0 .12.06.24-.1.27l.2.31c-.32-.06-.61.07-.78 0-.08.32-.35.64-.14 1 0 .1-.15 0-.22 0s0-.11 0-.17c0 .2-.27.45-.06.64-.23.11-.14-.24-.28 0v-.08c-.7.25 0 1.21-.8 1.45a.18.18 0 0 1 .12 0c-.62.5-.68 1.43-1.41 1.85-.18.13 0 .25 0 .43l-.21-.08.1.33c0 .37-.76.16-.67.69h.16c-.1.11-.16.43-.3.32 0 0 .11.12 0 .13l-.1-.06v.41c-.22.18-.38-.29-.61 0 0 .15.07.54.16.53a.2.2 0 0 1 .25 0v.14c.29.21.54.48.92.33l-.06-.31h.18l-.09.17c.2 0 .11-.15.07-.26a.31.31 0 0 0 .21 0l-.16-.36c.13 0 .17.23.32.14-.08-.17-.32-.08-.31-.28.19 0 .29.09.24-.09a.17.17 0 0 1 .13.15c0-.16.12-.28 0-.43.23 0 .17-.36.44-.17a.64.64 0 0 1 -.07-.41c.23.38.23-.32.56 0-.22-.31.14-.52.11-.84 0 0 .05.08 0 .09s.21-.08.32-.12c-.24-.17-.17-.39-.26-.59.34 0 .23.27.49.38-.2-.13 0-.38-.23-.44h.38c-.3-.22 0-.13-.11-.35.26-.06.31.15.34-.09.02-.24.02-.01.02-.01zm2.33-4.5v.09zm.24-.35-.12.14c-.06 0-.12-.08-.09-.12s.12-.01.21-.02zm-1.71-.12c0-.07.06-.06.1 0v.11z"/><path d="m184.07 39.76s0 0 0 0h.06v-.06z"/><path d="m189.47 35.21-.04-.03.01.06z"/><path d="m213.29 11.34h.06z"/><path d="m214.14 10.78h.15z"/><path d="m214.82 10.4a.59.59 0 0 0 0-.08z"/><path d="m205.36 18.27s0 0 0 0-.01.06 0 0z"/><path d="m207.83 15.52a.4.4 0 0 1 0 .15c.03-.03.08-.06 0-.15z"/><path d="m202.51 21.2v-.01l-.02.02z"/><path d="m207.67 15.77a.14.14 0 0 0 .13-.1c-.05.02-.11.04-.13.1z"/><path d="m217.64 8.51s-.01-.02 0 0z"/><path d="m217.7 8.37v.09s.02-.03 0-.09z"/><path d="m216.72 9.06v.07z"/><path d="m216.48 9.25c.07 0 .25 0 .3-.07 0 .07-.32-.07-.3.07z"/><path d="m214.86 9.23.25-.11c-.08 0-.19-.09-.11-.18-.41 0 .16.11-.14.29z"/><path d="m214.14 9.61c.09-.11-.07-.09-.09-.13s-.05.14.09.13z"/><path d="m209.44 13.17-.11-.16c-.07.09.04.06.11.16z"/><path d="m209.19 14.65.15.03-.07-.17z"/><path d="m207.81 14.02.02-.06-.1.17z"/><path d="m200.41 20.64.19.15c.02-.08-.15-.29-.19-.15z"/><path d="m197.53 23.82c-.12-.05-.25 0-.22.11.08-.05.21-.06.22-.11z"/><path d="m188.69 33.14-.01-.12-.05.17z"/><path d="m184.44 40.22c-.08.07 0 .21.21.16l.15-.27z"/><path d="m186.08 40.49c.27-.16.55-.42.33-.62-.23.28-.31.19-.57.51-.23.07-.42 0-.39-.11-.08.07-.38 0-.49.15a1.2 1.2 0 0 0 1.12-.1c.09.04.02.12 0 .17z"/><path d="m197.42 33.15-.13.05a.29.29 0 0 0 .13-.05z"/><path d="m205.37 25.44a.57.57 0 0 0 .22 0 .71.71 0 0 0 -.22 0z"/><path d="m204.48 25.09h-.09c.08-.01.14-.02.09 0z"/><path d="m197.42 33.15.32-.09c-.06-.06-.18.03-.32.09z"/><path d="m189.09 39.24a.61.61 0 0 0 -.18.11l.18-.07z"/><path d="m197 34.3.19-.08h.09-.06z"/><path d="m198.31 35.88c.14-.1-.21-.09-.35-.1.11 0 .1.09 0 .16a1.39 1.39 0 0 0 .35-.06z"/><path d="m190.39 39.73-.13.07z"/><path d="m196.42 34 .26-.07z"/><path d="m186.5 33.65s-.01.03 0 0z"/><path d="m185 39.06v-.08h-.12z"/><path d="m206.37 24.7s.01.02 0 0z"/><path d="m224.6 6.08c-.37.34.12-.81-.38-.25.1-.03.02.73.38.25z"/><path d="m189.22 39.23.18-.06a.54.54 0 0 0 -.18.06z"/><path d="m224.22 5.83-.05.06z"/><path d="m214.92 20a.32.32 0 0 0 -.14 0s.05 0 .14 0z"/><path d="m207.83 23.56.19-.06z"/><path d="m219.41 16.66c0-.06 0-.07-.31-.09h.21s.18.04.1.09z"/><path d="m213.76 15.86.07.05h.17z"/><path d="m192.34 25.22a.72.72 0 0 1 -.26.07c.16.02-.08.58.26-.07z"/><path d="m189.12 39.35a.15.15 0 0 1 .1-.12l-.13.05a.05.05 0 0 0 .03.07z"/><path d="m214.92 17.69s0 0 0 0-.03-.01 0 0z"/><path d="m208.35 10.09-.1.12a.27.27 0 0 0 .1-.12z"/><path d="m214.58 17.64a.18.18 0 0 0 0-.15l-.08.05c.12.05.05.07.08.1z"/><path d="m190.28 29.37c.33-.55-.08-.4-.15-.6.32-.7.35-.2.61-.35a8.69 8.69 0 0 1 .33-1.2c.05 0 .1 0 .11.05.06-.55.74-1.3.8-1.95h.1a.52.52 0 0 1 -.38-.11c.14-.25.12-.55.33-.55-.09.15 0 .2 0 .3l.09-.3c.36-.11-.13.4 0 .49a7.55 7.55 0 0 1 .67-1.6c.27.05-.45.95.05.55l-.44.55c.62-.25-.24.35.38.15.53-.76.41-.95.93-1.7 0-.25-.22-.05-.23-.3.43-1.25 1.06-.56 1.25-1.55 0-.3-.25-.55.24-1l.13.35a1.36 1.36 0 0 0 .2-.47l-1.3.19c.17 0 .38-.08.46.41-.14-.07-.31-.35-.29-.26 0 .42.29.14.39.47l-.23.11a1.9 1.9 0 0 1 .06.54l1.61.41a15.87 15.87 0 0 1 .71-1.95c0 .08 0 .27.21.1a11.61 11.61 0 0 1 2.21-3.28l.1-.51c.07-.08.2-.1.16 0 .35-.34-.09-.1 0-.34s.33-.21.27 0a6.81 6.81 0 0 1 2-2.62l-.07.17a1.09 1.09 0 0 0 .39-.64 1.6 1.6 0 0 1 .13-.3.32.32 0 0 1 .2-.14v.08c.34-.26.57-.49.86-.73a12.43 12.43 0 0 1 0 2.5c.09-.15.12 0 .13.27.52-.45 1.24-1 1.36-1.48.46-.28.68-.37.94-.53l.52-.34.38-.28.33-.24c.26-.21.18-.54.46-.85l.16.16.25-.56h.3l.24-.31c-.12.09-.31.15-.34.08a2.22 2.22 0 0 1 1.29-.8l.93-1.11c0 .09-.12.27-.22.45.4-.69.27.08.64-.55-.11 0-.06-.14-.08-.18a5.06 5.06 0 0 0 1.35-1.07v.19c.81-.69 1.6-1.57 2.48-2.37-.36.23-.48 0-.24-.29l.27.08c.07-.26-.33.18-.11-.27.34-.28.41 0 .27.24l.34-.43c.08 0 0 .14 0 .24 0-.08.09-.15.19-.22l-1.73-.84c-.08.51-.3 1.38-.13 1.69l-.08.09c-.02 1.09-.07 1.89-.07 2.55.69-.37 1.32-.72 2.11-1.12.07-.28.67-.53 1-.89.31-.12.41-.15.61-.21l.55-.17a9.22 9.22 0 0 0 1.14-.41c.51-.32.1-.23.3-.45.11.17.89-.16.53.13.94-.4 1.19-.51 2.36-1.07-.16 0-.32 0-.26-.1.21-.11.53-.09.53 0h-.05a4 4 0 0 1 1.11-.37 3.45 3.45 0 0 1 .55-.09.54.54 0 0 1 .2 0c.2.09.09.19.48-.05.08 0 .13 0 .15.16s-.15 0-.37.16c.35 0-.56 1.06-.78 2a1.33 1.33 0 0 0 -.38.37 1.56 1.56 0 0 0 -.17.25 2.75 2.75 0 0 0 -.21.39c-.39.77-.76 1.64-1.12 2.44a14.65 14.65 0 0 1 2.63.58l-.08-.15a1.15 1.15 0 0 1 .33 0h-.09a.67.67 0 0 1 -.28.07c.13-.08.32-.07.24-.15-.42-.2-.34.07-.5.21l-.11.13-.18.19c-.2.21-.4.44-.62.64a15.74 15.74 0 0 1 -2.86 2.13c-.74.42 0 .88-1.16 1.14l.15-.37a7.65 7.65 0 0 1 -2.35 1.23c-.85.28-1.7.5-2.52.76.09-.07.08-.15.24-.18-.38-.08-1.31.18-1.31.33-.27 0-.07-.13-.24-.19a2 2 0 0 0 -.79.13l-.11 1.91a.39.39 0 0 1 .32.08s-.12 0-.19.05c.26-.06 1.16.18.95-.06.66.19 1.31.08 1.83.27.06-.11.17-.06.23 0s.11 0 .34-.1c-.36.29-.18.25.4.17-.29.06-.18.08-.6.17h.46c-.55.13-.4.12-.42.22a.3.3 0 0 1 -.45.13 4 4 0 0 1 -.64.55c-.28.22-.55.42-.83.62-.55.41-1.1.78-1.65 1.14-.12-.31 1.24-.75 1-1a12.58 12.58 0 0 1 -2.6 1.85c-.31.11.09-.22.15-.32-1 .7-2.13 1.07-3.05 1.7 0 0 .09-.11.18-.19-.19.11-.48.17-.39.3l.17-.12c.41 0-.58.78-.58.9.08-.27-.16-.19-.44-.12s-.69.2-.43-.22c-.21.13-.43.3-.29.35-.32.1-.51.11-.27-.11-1.16.57-.47.47-1.5.88-.14 0 0-.12 0-.2a3.12 3.12 0 0 1 -.77.54.54.54 0 0 1 -.24.27c-.07 0-.22 0-.15-.06-.14.18-.17.34-.29.48a2.26 2.26 0 0 1 -.56.36l.58.15c-.4 0 .38.13.39.28.22.07.43.13.65.18l-.24-.17a3.66 3.66 0 0 0 .62.14h.29.14-.24-.59a1.54 1.54 0 0 1 .35 0h-.6l.9.1-.95-.08 1.3.06-.52-.15c.92-.07.61-.31 1.25-.17-.23 0 .64.05.52.21a2.11 2.11 0 0 1 1 0c-.15.07-.81.24-.9.29a1.27 1.27 0 0 1 .41-.06.53.53 0 0 1 -.13.16c-.12.12-.24.25-.13.31s-.31 0-.38 0a1 1 0 0 1 .22.07.62.62 0 0 1 -.46.1c-.41.27.64 0-.07.31 0 0 0 0 0-.11a3 3 0 0 0 -.37.26l-.41.35a5.73 5.73 0 0 1 -1 .74c-.36-.09.53-.47.17-.5a25.05 25.05 0 0 1 -2.75 2.25l.19-.09c.09.42-.81.3-1.18.77.1-.1 0-.28 0-.23a7.38 7.38 0 0 0 -1 .7c-.38.29-.66.56-1.31 1l.08-.16c-.59.25-1.48.81-2.19 1.16 0 .1-.35.29.18.16l-.3.11a3 3 0 0 0 -.95.71 3 3 0 0 1 -.59.51c.33.06.86 0 1 .23-.11 0-.35 0-.27 0a7.28 7.28 0 0 0 .88.11c.26-.18.1-.13.13-.26a6.72 6.72 0 0 1 .76-.16h.29c-.74.15-.57.3-.62.4.09-.06.28-.12.39-.18-.2.32.92-.39 1.2-.19l-.29.1a12.07 12.07 0 0 1 1.28-.2c-.49.22-.6.12-1.1.31.22 0 .71-.13 1.14-.22l.3-.06s0 0 0 .06a1.45 1.45 0 0 1 -.4.25c-.08 0 .3-.27-.23-.13a6.26 6.26 0 0 1 -.55.31c-.11.06-.14.1-.28.18-.23.14-.45.25-.65.35l.25-.1c.52 0 .33.16.12.31a1.17 1.17 0 0 0 -.54.56c.1-.26 0-.27-.07-.25a.63.63 0 0 1 -.34 0c-.19.05-.39.09-.42 0s-.09.12-.17.14a.37.37 0 0 0 -.14.07 1 1 0 0 0 -.24.26c-.06-.05-.34.19-.36 0-.38.28.16.06.17.15-.52.58-1.64.55-2.46 1.26a19.84 19.84 0 0 1 -1.62 1.17c-.31 0 .13-.33.13-.33a3.09 3.09 0 0 0 -1.18.38c.06-.08 0-.11-.19-.15-.33.11-.15.32-.62.33a1.09 1.09 0 0 1 .26-.37c-.38.17-.74.41-1.14.56-.14-.1.21-.25.33-.36-.44.17-1.17.37-1.28.59h.31c-.17 0-.12-.16 0-.22.37-.23.59 0 .63 0l-.28.11c.39.36 1.18-.34 1.76-.48l-.16.37c.18-.14.36-.28.53-.43.16 0 .3.18 0 .31.47 0 .34-.21.76-.17v.06l.38-.23c-.06.09.14.18-.13.23.81-.08 1.1-.66 1.46-.55 1-.52 0-.25.64-.81l.74.28v-.26c.11 0 .31-.12.32 0 .3-.32-.11-.06 0-.29.58-.06 1.25-.79 1.54-.54.08-.25-.51.15-.08-.25.16.13.31 0 .49-.13a1.37 1.37 0 0 1 .64-.44c.09.17-.54.46.17.21 0-.19.23-.32.55-.5a4.19 4.19 0 0 0 .9-.53c-.47 0 .64-.62 1.07-1.1a3.05 3.05 0 0 0 .34-.2l.14-.1s.15-.09.08-.08h-.24a9.43 9.43 0 0 1 -1-.1h.13a7.45 7.45 0 0 1 -2 .32 3.12 3.12 0 0 1 1-.33h-.5a3.08 3.08 0 0 1 -.71.19l.58-.23c-.17 0-.49.09-.83.15s-.67.09-.63 0c-.37.1-.77.24-1.17.37-.19.07-.42.14-.61.19a.55.55 0 0 1 -.23 0l.12-.07h.1a1.37 1.37 0 0 1 .42-.08s-.14 0 .14-.12l.44-.06c.54-.21-.44.09-.16 0 .55-.14.54-.18.93-.27 0 0-.38.14-.23.12a8.9 8.9 0 0 1 1.24-.43c-.29.06-.65.14-.56.07a4.7 4.7 0 0 1 1-.28c-.2 0 .23-.13-.27-.09h.05a2.22 2.22 0 0 1 .45-.07c0-.08.65-.42.17-.4h-.07c.44-.52 1.69-.88 2.48-1.5v.06a9.53 9.53 0 0 0 1.38-1.16c.15-.1.43-.13.42 0a2.6 2.6 0 0 1 1-.69c-.31.37.2 0-.34.35a2.48 2.48 0 0 0 1.13-.82c-.07.28.51-.08.71-.29l-.43.14a6.36 6.36 0 0 1 .73-.53v.3a4 4 0 0 0 .41-.22 4.75 4.75 0 0 0 .39-.32c.36-.3.65-.61.91-.87a5.65 5.65 0 0 1 2.04-1.43c0-.24-1 .68-1.08.45a14.45 14.45 0 0 1 1.34-.82l.37-.21.17-.1h.08s0 0 0 0a.46.46 0 0 0 -.19-.08 4.16 4.16 0 0 0 -1.45 0l-.67.07h-.34-.2c-.07.08-.28.3-1 .33-.49-.08.17-.36.54-.4.1 0 .09 0 0 0 .19 0 .4 0 .42-.13l-.2.07c0-.06-.24-.1-.24-.14l-1.09-.11-.4-.05h-.15v-.09h.23-.22s0 0 0 .05 0 0 0 0l1.47.14-1-.09-.47-.05h.08a.33.33 0 0 1 .1 0 .78.78 0 0 0 .29 0c-.19 0-.47.11-.47.11.29-.05-.12 0-.5.08-.13 0-.22 0-.12 0 .78-.16 1.18-.13 1.12-.22a5.74 5.74 0 0 1 1.06-.1c-.22 0 0-.06.21-.09l.52-.05h.13c-.06 0-.06 0-.05 0h-.38a.81.81 0 0 1 .27 0c-.16-.06-.67 0-.77-.17.27 0 .33-.24.63-.12-.23.06-.14.09 0 .12s.23.07.19.11 0 0 .1 0a.1.1 0 0 1 .06 0c.17 0 .09 0 0-.08a.21.21 0 0 1 0-.13s0-.07.24-.18c-.05.17.29.15.41.06-.33.14-.24-.13 0-.36.56-.15.53-.33.8-.45l-.32.1c0-.17.31-.27.65-.48.07.08-.3.22-.15.2.29-.4 1-.21 1.48-.64.29 0 .14.21.39.15.53-.46.75-.18 1.32-.65-.27-.06-.28 0 .09-.39l-1 .67.55-.59c-.32.16-.62.46-.82.53.25-.3.24-.25 0-.3.56 0 .78-.58 1.36-.7l.2.4c.85-.25 1.22-.94 2.22-1.41l-.34.11c0-.22.57-.37.84-.62 0 .15.27.08.45.07-.06-.09.65-.39.67-.76l.72-.24a2.21 2.21 0 0 0 .93-.83 1.58 1.58 0 0 1 .68-.7c0 .17.72-.17.21.32.37-.25.76-.5.55-.47a1.6 1.6 0 0 0 .49-.4 2.89 2.89 0 0 1 .25-.24h-.05-.08c-.05 0-.07 0-.08 0a5.14 5.14 0 0 1 -1.12 0s.15 0 .15 0c-.17 0-.83 0-.81.15 0-.25-1-.36-1.75-.45a4 4 0 0 1 -1.74-.39c-.62 0-1.37-.09-1.93-.15 0 0 0-.07.11 0l-.16-.05-.06 1.06c.58 0 .38-.44 1.2-.37.49.19-.46.18-.17.24.18.47 1.09-.17 1.74 0l-.15.06c.51.08 1.1-.42 1.84-.61v.07a16 16 0 0 1 1.94-1.18c-.12.27-.26.23-.05.35.29-.17-.21-.25.35-.57.24 0 .69-.14.85 0l-.55.31c.41.08.71-.39 1-.52v.13c.81-.55.66-.79 1.49-1.37h-.14c.27-.56.47-.16.77-.67l.32.11 1.16-1.6a5.65 5.65 0 0 1 -.84 1.47c.29-.23.9-.88.92-1.13a1.14 1.14 0 0 1 -.29.39 4.69 4.69 0 0 1 .91-1.54c.1.1.21.11.4-.08a6.54 6.54 0 0 0 .63-.77l.71-1c.13-.16.26-.33.4-.48-.09-.09-.28-.14-.35-.22-.47-.06-.9-.12-1.31-.19h-.37a1.13 1.13 0 0 1 -.33-.13l.19-.25.06-.11.06-.14c-.16.08-.21 0-.23 0s0-.07 0-.14.15-.34-.08-.4c.12-.32.19-.44.23-.45l.69-.81c.23-.16 0 .33.06.35.35-.66.31-.2.63-.59-.1 0-.12-.07-.09-.2a.79.79 0 0 1 .08-.23c.06-.13.16-.31.26-.48l-.33.44-.23.23c.29-1.18 1.06-1.29 1.52-2.87v.45c.15-.43.52-1.25.84-2v-.07s0 0 0 0h-.17l-.35.11-.67.22a5.68 5.68 0 0 0 -1.09.48c-.09 0-.22-.13.21-.27a17.44 17.44 0 0 0 -1.72.48c-.28.09-.59.2-.84.3l-.49.2a7.28 7.28 0 0 1 -1.75.6v-.14c-.22.11-.33.33-.65.33 0-.05.05-.14-.06-.1a2.69 2.69 0 0 1 -.86.46l.21-.22c-1.25.32-1.71 1-2.65 1.5-.06-.15-.34-.15-.65-.09a4.58 4.58 0 0 0 -.47.12h-.08v-.29c-.06 0-.1.08-.27.23-.09 0-.22-.2-.26-.61l.09-.13 1.15-1.92-2.42 1.3c-.85.45-2.05 1.76-3.08 2.45.2-.09.15.22 0 .4s-.49.76-.66.51l.09-.08c-.38 0-.81.44-1.19.78l.21.35c-1.37.47-2.43 2.51-3.31 2.62-.17.29-.47.55-.63.84l-.13-.17c-.12.1-.12.1-.14.1h-.05l-.07.05a.65.65 0 0 0 -.18.19 3.21 3.21 0 0 0 .12-.31l-.13.3c-.18.11-.46.56-.5.2l.26-.83c0-.26 0-.55 0-.85v-.8l-.13.1a15.42 15.42 0 0 0 -2.08 1.92.65.65 0 0 1 .26-.42c-.34.27-1 .79-1.48 1.27-.32.32-.49.58-.28.67-.21-.19-.82.8-1.1 1.34l-.1-.21a2.49 2.49 0 0 1 -.47 1.2c-.13.11-.23 0 0-.13-.44.36-.12.46-.62.92v-.28a1.06 1.06 0 0 0 -.33.8c-.15.33-.66.85-.87.81a.83.83 0 0 1 -.21.73c-.08 0-.06-.13 0-.19-.64.73-.53 1.33-1 1.8a.15.15 0 0 0 -.16 0 11.1 11.1 0 0 1 .68-1.12c-.16-.1-.51.41-.49-.14a6.2 6.2 0 0 1 -.62 1.88h-.09v-.07a.79.79 0 0 0 -.15.36 4.94 4.94 0 0 0 -.27.42c-.18 0-.37.61-.51.89a.17.17 0 0 1 .12.16l1.46.49c0-.08 0-.13-.11 0l-1.25-.42s0 0 .11-.06 0-.07.07-.25 0-.1 0-.13c.08-.18.18-.42.31-.69a1.07 1.07 0 0 1 -.28.79l.14.49.45.15a0 0 0 0 1 0 0 1.59 1.59 0 0 0 .39-.89c.06-.34 0-.66.08-.76a3.16 3.16 0 0 0 -.79-1l-.79-.66-.4.84a4 4 0 0 0 -.57 1.74c-.09.25-.25.21-.35.26 0-.15.14-.3.13-.4-.18.5-.74 1.35-.57 1.59-.44.51 0-.44-.45.36v-.15c-1.27 1.31-.84 2.84-2.32 4.25.1-.1.15-.15.2-.15a37.16 37.16 0 0 0 -2.23 3.83h.67a15.39 15.39 0 0 1 -.75-1.38l-.31-.65-.45.64c-.16.23-.34.45-.51.67-.38.53-.24.69-.29 1.09h-.27v.72c-.15.93-1.09 1.39-1 2.67l.18-.12c-.13.42-.14 1.36-.3 1.26a.28.28 0 0 1 0 .32h-.12q0 .54.12 1.08c-.1.81-.48-.15-.5 1.07 0 .47.43 1.27.5 1.09s0-.46.15-.48l.25.46c.36.05.73.28.91-.65l-.24-.64.17-.21v.54a.78.78 0 0 0 -.08-.72.47.47 0 0 0 .24-.32c-.1-.21-.21-.43-.3-.65.15-.06.25.3.36-.11-.13-.31-.33.26-.39-.25.19-.29.31-.18.22-.56.1 0 .15 0 .17.19-.07-.33.08-.85-.06-1 .25-.27.2-1.08.51-1a2.11 2.11 0 0 1 0-.91c.19.64.4-1 .76-.74-.18-.51.45-1.37.65-2.06a.22.22 0 0 1 0 .19 1.22 1.22 0 0 1 .19-.23h-1.51c.06.19.06.32.11.51.28-.11.68.43 1 .64h.87c.28-.17.29 0 .3.17v.73l-1.5-.73c-.12-.06-.25-.12-.32 0 .06 0 .13 0 .21.06l1.5 1.17.17-1.17c0-.27.23-.67 0-.63.35-.26.24-.26.56-.31-.29-.24.13-.35.1-.75.44-.4.37.05.59-.55.26-.19.09.36.09.36zm6.33-9.31-.13.27zm.58-1.09c-.08.13-.17.29-.26.46-.09 0-.13-.07-.07-.18.01.08.19-.15.33-.25zm-2.52 1.71c.06-.2.13-.25.18-.25a3.26 3.26 0 0 0 -.13.33.39.39 0 0 1 -.05-.08z"/><path d="m194.77 21.13s0 0 0 .08l.09-.09v-.1z"/><path d="m207.39 11.11-.04-.04-.05.11z"/><path d="m195.51 35.32s0 0 0 .06a.13.13 0 0 0 0-.06z"/><path d="m197 35.55-.4.21z"/><path d="m195.65 36.37h.1z"/><path d="m207.09 22.35h.07c.17-.17.05-.09-.07 0z"/><path d="m205.24 26.23-.39.07a.52.52 0 0 0 .39-.07z"/><path d="m204.24 26.24a1.69 1.69 0 0 0 .61.06 2.62 2.62 0 0 0 -.61-.06z"/><path d="m187.14 39.68h-.14s0 0 0 0z"/><path d="m187 39.73h-.12c.12.03.12.02.12 0z"/><path d="m186.67 39.87.24-.1c-.08.02-.19.03-.24.1z"/><path d="m190 39v-.09a.13.13 0 0 0 0 .09z"/><path d="m190.89 38.71a2.73 2.73 0 0 0 -.83.17v.06c.08-.15.67-.04.83-.23z"/><path d="m194.77 38-.72.32c.16 0 .37 0 .06.2.99-.28-.26-.09.66-.52z"/><path d="m197.33 36.49c-.39.33.17 0 .22 0 .19-.2.21-.24-.22 0z"/><path d="m201.71 30.56.08.18c.21-.2-.04-.06-.08-.18z"/><path d="m203.84 27.82-.32.09-.02.23z"/><path d="m207.04 27.07-.14.15.58-.56z"/><path d="m214.53 15.77.06.25c.23-.02.31-.27-.06-.25z"/><path d="m221.33 13.42a.74.74 0 0 0 .67-.42c-.29.2-.57.32-.67.42z"/><path d="m208.57 7.46.13-.23-.3.37z"/></g></svg>